<svg xmlns="http://www.w3.org/2000/svg" viewBox="0 0 1400 1100" role="img" aria-labelledby="title desc">
  <title id="title">Support worker and participant illustration</title>
  <desc id="desc">A warm, professional disability support scene in a home environment.</desc>
  <defs>
    <linearGradient id="bg" x1="0%" y1="0%" x2="100%" y2="100%">
      <stop offset="0%" stop-color="#fff6ef" />
      <stop offset="48%" stop-color="#eefaff" />
      <stop offset="100%" stop-color="#f0fff8" />
    </linearGradient>
    <linearGradient id="panel" x1="0%" y1="0%" x2="100%" y2="100%">
      <stop offset="0%" stop-color="#ffffff" stop-opacity="0.95" />
      <stop offset="100%" stop-color="#f7fcff" stop-opacity="0.92" />
    </linearGradient>
    <linearGradient id="shirtA" x1="0%" y1="0%" x2="100%" y2="100%">
      <stop offset="0%" stop-color="#28c7c2" />
      <stop offset="100%" stop-color="#1098d5" />
    </linearGradient>
    <linearGradient id="shirtB" x1="0%" y1="0%" x2="100%" y2="100%">
      <stop offset="0%" stop-color="#7ed957" />
      <stop offset="100%" stop-color="#39b56a" />
    </linearGradient>
    <filter id="shadow" x="-20%" y="-20%" width="140%" height="140%">
      <feDropShadow dx="0" dy="18" stdDeviation="22" flood-color="#17324d" flood-opacity="0.12"/>
    </filter>
  </defs>

  <rect width="1400" height="1100" fill="url(#bg)" />
  <circle cx="1180" cy="160" r="130" fill="#ffd9c5" fill-opacity="0.55" />
  <circle cx="220" cy="920" r="190" fill="#dff7f4" fill-opacity="0.8" />
  <circle cx="1220" cy="860" r="170" fill="#dff1ff" fill-opacity="0.7" />

  <g filter="url(#shadow)">
    <rect x="120" y="120" width="1160" height="860" rx="56" fill="url(#panel)" />
  </g>

  <rect x="760" y="220" width="350" height="250" rx="28" fill="#f9fcff" stroke="#d6edf8" />
  <rect x="790" y="250" width="290" height="180" rx="20" fill="#ffffff" />
  <rect x="840" y="270" width="120" height="90" rx="18" fill="#d8f3ef" />
  <path d="M900 286l38 28v46h-76v-46z" fill="#7fd2ca" />
  <rect x="868" y="330" width="24" height="30" rx="8" fill="#fff4e8" />
  <rect x="985" y="278" width="70" height="14" rx="7" fill="#d1e9ef" />
  <rect x="985" y="306" width="56" height="12" rx="6" fill="#e0eef2" />
  <circle cx="1020" cy="360" r="26" fill="#f7b36a" />

  <rect x="220" y="230" width="430" height="560" rx="42" fill="#ffffff" />
  <rect x="620" y="260" width="120" height="340" rx="34" fill="#ffffff" />

  <ellipse cx="470" cy="824" rx="280" ry="56" fill="#d7ebef" fill-opacity="0.75" />
  <ellipse cx="900" cy="824" rx="220" ry="46" fill="#dceef4" fill-opacity="0.78" />

  <g>
    <circle cx="470" cy="330" r="70" fill="#f5c29a" />
    <path d="M404 318c6-64 119-86 138-14 5 18 3 40-3 58-12-18-30-32-49-35-24-5-45 7-63 23-18-8-26-20-23-32z" fill="#17324d" />
    <path d="M372 676c12-164 36-238 83-276 21 20 53 29 93 16 33 28 66 112 79 260H372z" fill="url(#shirtA)" />
    <rect x="420" y="458" width="44" height="112" rx="22" fill="#f5c29a" />
    <rect x="516" y="450" width="44" height="126" rx="22" fill="#f5c29a" />
    <path d="M418 520c31 11 61 10 92-2" stroke="#ffffff" stroke-width="12" stroke-linecap="round" />
    <rect x="390" y="676" width="78" height="132" rx="26" fill="#17324d" />
    <rect x="520" y="676" width="78" height="132" rx="26" fill="#17324d" />
    <rect x="372" y="795" width="110" height="34" rx="17" fill="#2c4158" />
    <rect x="500" y="795" width="112" height="34" rx="17" fill="#2c4158" />
  </g>

  <g>
    <circle cx="860" cy="360" r="64" fill="#f2bd92" />
    <path d="M802 354c0-54 96-82 127-25 9 16 12 41 3 63-15-17-32-29-56-29-26 0-45 11-66 26-6-12-8-23-8-35z" fill="#3a2751" />
    <path d="M758 710c16-116 39-188 89-226 30 22 80 25 122 5 39 40 56 118 59 221H758z" fill="url(#shirtB)" />
    <rect x="820" y="476" width="46" height="104" rx="23" fill="#f2bd92" />
    <rect x="900" y="482" width="46" height="98" rx="23" fill="#f2bd92" />
    <path d="M806 530c31 14 83 14 117 0" stroke="#ffffff" stroke-width="12" stroke-linecap="round" />
    <rect x="794" y="710" width="82" height="122" rx="26" fill="#4e326e" />
    <rect x="920" y="710" width="82" height="122" rx="26" fill="#4e326e" />
    <rect x="780" y="816" width="112" height="32" rx="16" fill="#3a2751" />
    <rect x="906" y="816" width="114" height="32" rx="16" fill="#3a2751" />
  </g>

  <g>
    <rect x="548" y="470" width="248" height="118" rx="32" fill="#f5fbff" stroke="#dceff7" />
    <rect x="580" y="500" width="84" height="22" rx="11" fill="#17324d" />
    <rect x="580" y="538" width="154" height="18" rx="9" fill="#ff9d71" />
    <rect x="690" y="494" width="68" height="68" rx="20" fill="#d7f3ee" />
  </g>

  <g>
    <rect x="1020" y="560" width="170" height="124" rx="26" fill="#17324d" />
    <rect x="1050" y="590" width="108" height="16" rx="8" fill="#cfeaf1" />
    <rect x="1050" y="624" width="86" height="14" rx="7" fill="#ffffff" fill-opacity="0.8" />
    <rect x="1050" y="650" width="102" height="14" rx="7" fill="#b3eadd" />
  </g>

  <g>
    <rect x="246" y="546" width="172" height="94" rx="24" fill="#ffffff" />
    <circle cx="286" cy="584" r="24" fill="#ff9768" />
    <rect x="330" y="570" width="58" height="10" rx="5" fill="#d8edf3" />
    <rect x="330" y="596" width="64" height="10" rx="5" fill="#e9f2f5" />
  </g>
</svg>
