<svg width="1200" height="900" viewBox="0 0 1200 900" fill="none" xmlns="http://www.w3.org/2000/svg">
  <rect width="1200" height="900" rx="36" fill="url(#bg)"/>
  <rect x="90" y="94" width="1020" height="712" rx="36" fill="white" fill-opacity="0.56"/>
  <circle cx="324" cy="360" r="90" fill="#17324D"/>
  <path d="M224 624C224 554.412 280.412 498 350 498H454C523.588 498 580 554.412 580 624V694H224V624Z" fill="#1194CF"/>
  <circle cx="716" cy="382" r="78" fill="#FFB97A"/>
  <path d="M628 628C628 567.249 677.249 518 738 518H802C862.751 518 912 567.249 912 628V694H628V628Z" fill="#4BC9B3"/>
  <rect x="648" y="228" width="266" height="190" rx="28" fill="#FFFFFF"/>
  <path d="M744 272H818V314H860V388H702V314H744V272Z" fill="#FF8A5B"/>
  <rect x="206" y="210" width="286" height="164" rx="28" fill="#FFFFFF"/>
  <rect x="236" y="244" width="156" height="18" rx="9" fill="#D5EBFB"/>
  <rect x="236" y="280" width="122" height="12" rx="6" fill="#E9F5FD"/>
  <rect x="236" y="330" width="216" height="16" rx="8" fill="#DFF7EF"/>
  <rect x="202" y="722" width="726" height="84" rx="24" fill="#FFFFFF"/>
  <circle cx="262" cy="764" r="26" fill="#FF8A5B"/>
  <rect x="308" y="752" width="236" height="14" rx="7" fill="#D3EEFC"/>
  <rect x="308" y="778" width="192" height="10" rx="5" fill="#DDF7EE"/>
  <rect x="770" y="724" width="126" height="56" rx="18" fill="#17324D"/>
  <defs>
    <linearGradient id="bg" x1="88" y1="90" x2="1040" y2="800" gradientUnits="userSpaceOnUse">
      <stop stop-color="#EFF8FF"/>
      <stop offset="0.55" stop-color="#F4FEFF"/>
      <stop offset="1" stop-color="#FFF5ED"/>
    </linearGradient>
  </defs>
</svg>
